<?xml version="1.0" standalone="no"?><!DOCTYPE svg PUBLIC "-//W3C//DTD SVG 1.1//EN" "http://www.w3.org/Graphics/SVG/1.1/DTD/svg11.dtd"><svg t="1702835858474" class="icon" viewBox="0 0 1254 1024" version="1.1" xmlns="http://www.w3.org/2000/svg" p-id="1527" xmlns:xlink="http://www.w3.org/1999/xlink" width="244.921875" height="200"><path d="M1168.899038 183.864344a0.881914 0.881914 0 0 1 0.764325 1.322871L1063.19676 369.061359a0.881914 0.881914 0 0 1-1.523751 0l-106.157933-183.869244a0.881914 0.881914 0 0 1 0.764325-1.322871h212.614737z" fill="#0086E8" p-id="1528"></path><path d="M1063.20166 0.440957l106.461703 183.869244a0.881914 0.881914 0 0 1-0.764325 1.322871h-212.614737a0.881914 0.881914 0 0 1-0.764325-1.322871L1061.677909 0.440957a0.881914 0.881914 0 0 1 1.523751 0z" fill="#0093FF" p-id="1529"></path><path d="M1062.461832 367.728689a0.881914 0.881914 0 0 1 0.759426 1.322871l-212.315866 367.738488a0.881914 0.881914 0 0 1-1.528651 0l-212.310966-367.738488a0.881914 0.881914 0 0 1 0.764325-1.322871h424.626832z" fill="#0076CC" p-id="1530"></path><path d="M850.905392 0.440957l212.315866 367.733588a0.881914 0.881914 0 0 1-0.764326 1.322871h-424.626832a0.881914 0.881914 0 0 1-0.764325-1.322871L849.376741 0.440957a0.881914 0.881914 0 0 1 1.528651 0z" fill="#0066B0" p-id="1531"></path><path d="M850.126368 0a0.881914 0.881914 0 0 1 0.764325 1.322871L426.278559 736.790048a0.881914 0.881914 0 0 1-1.52865 0L0.118176 1.322871A0.881914 0.881914 0 0 1 0.882502 0h849.243866z" fill="#005A9C" p-id="1532"></path><path d="M254.658119 813.011904l-45.325474 174.506259-47.40287-174.506259h-30.230048l-49.76934 175.099101-45.036402-175.099101H8.158291l57.770259 206.799005 29.926277-0.293971 49.774239-166.211369 47.995713 166.211369h30.220249l59.847656-206.505034h-29.034565z m206.799005 119.107369a81.782813 81.782813 0 0 0-9.62756-39.852708 69.793684 69.793684 0 0 0-27.407923-27.696996 81.50844 81.50844 0 0 0-40.886508-10.073416 84.227675 84.227675 0 0 0-41.920306 10.230201 70.709895 70.709895 0 0 0-28.294737 29.18155c-6.717244 12.640766-10.073416 27.358928-10.073416 44.144689s3.459062 31.552919 10.367388 44.291675a73.370335 73.370335 0 0 0 28.593607 29.480421 82.02289 82.02289 0 0 0 41.327464 10.372287c19.35311 0 35.550928-4.889722 48.588555-14.664268a69.808383 69.808383 0 0 0 26.075254-38.069282h-29.034565a43.140287 43.140287 0 0 1-16.442794 21.773474c-7.804938 5.433569-17.535388 8.147904-29.18645 8.143004a52.277895 52.277895 0 0 1-36.295655-13.473684c-9.975426-8.990622-15.453091-21.484402-16.442794-37.48134h129.773626a159.087464 159.087464 0 0 0 0.881914-16.295808v-0.009799z m-27.848881-5.63445H331.095554c1.381665-15.399196 6.85933-27.44712 16.442795-36.14377a49.97512 49.97512 0 0 1 34.816-13.032728c8.971024-0.117589 17.848957 1.861818 25.923368 5.776536a44.34067 44.34067 0 0 1 18.520192 16.883751 49.754641 49.754641 0 0 1 6.810334 26.52111z m90.361876-39.103081v-87.108594h-26.962067v219.24379h26.962067v-29.921378a62.434603 62.434603 0 0 0 23.850871 23.400115 72.214048 72.214048 0 0 0 36.883598 9.186603 73.860287 73.860287 0 0 0 66.961761-40.587637 93.213397 93.213397 0 0 0 10.068516-43.850718c0-16.58978-3.356172-31.160957-10.068516-43.703732a73.468325 73.468325 0 0 0-27.559809-29.18155 75.776 75.776 0 0 0-39.406852-10.367387 71.905378 71.905378 0 0 0-36.437741 9.186602 63.762373 63.762373 0 0 0-24.296727 23.698986z m110.214737 50.367081a67.569301 67.569301 0 0 1-7.408077 32.439732 52.096612 52.096612 0 0 1-19.999847 21.038545c-8.422278 4.845627-17.981244 7.349282-27.701894 7.251292a53.889837 53.889837 0 0 1-27.403024-7.251292 53.052019 53.052019 0 0 1-20.146833-21.038545 71.533014 71.533014 0 0 1 0-63.99755 53.086316 53.086316 0 0 1 20.146833-21.033646 53.924134 53.924134 0 0 1 27.403024-7.256192 55.364593 55.364593 0 0 1 27.701894 7.104307 51.322488 51.322488 0 0 1 19.999847 20.744574 66.04555 66.04555 0 0 1 7.408077 31.993875z m251.835407-64.889263a93.252593 93.252593 0 0 0-36.893398-45.923216c-16.883751-10.862239-36.290756-16.295809-58.211215-16.295808a104.237321 104.237321 0 0 0-52.444478 13.478584 98.705761 98.705761 0 0 0-37.48134 37.628325 113.874679 113.874679 0 0 0 0 108.583196 98.955636 98.955636 0 0 0 37.48134 37.48134 104.178526 104.178526 0 0 0 52.444478 13.478584 100.45489 100.45489 0 0 0 49.475369-12.297799 98.838048 98.838048 0 0 0 35.849799-33.478431 102.551885 102.551885 0 0 0 15.996937-46.663043v-20.734775h-111.10155v21.925359h82.360957c-2.175388 20.548593-9.779445 36.844402-22.807273 48.882526-13.032727 12.043024-29.622507 18.064536-49.774239 18.079234a76.961684 76.961684 0 0 1-38.960995-9.92643 70.313033 70.313033 0 0 1-27.256038-28.299637c-6.619254-12.239005-9.926431-26.462316-9.926431-42.660134 0-16.197818 3.312077-30.470124 9.926431-42.812019a70.151349 70.151349 0 0 1 27.256038-28.441722 76.995981 76.995981 0 0 1 38.960995-9.926431c13.3169-0.293971 26.452517 3.145493 37.922297 9.926431a64.267024 64.267024 0 0 1 24.88467 27.995866h32.292746z m179.836937 0.587942c0-17.775464-6.075407-32.287847-18.22622-43.551846-12.141014-11.2591-29.867483-16.883751-53.174507-16.883752h-66.667789v206.505034h26.957167v-86.216881h39.705723c24.090947 0 42.018297-5.678545 53.772248-17.035636 11.753952-11.357091 17.633378-25.624498 17.638278-42.812019h-0.0049z m-71.400727 37.628326h-39.700823v-75.839694h39.700823c29.225646 0 43.840919 12.738756 43.845818 38.221167 0 12.052823-3.557053 21.332517-10.666258 27.848881s-18.172325 9.774545-33.17956 9.779445v-0.009799z m104.286316-98.063924v130.36157c0 17.187522 3.405167 31.650909 10.225301 43.40976a64.169033 64.169033 0 0 0 27.848881 26.212441 95.32999 95.32999 0 0 0 79.107674 0c11.758852-5.727541 21.5089-14.860249 28.000766-26.212441 6.903426-11.753952 10.352689-26.222239 10.352689-43.40976v-130.36157h-26.952268v130.66044c0 18.368306-4.497761 31.993876-13.483483 40.881608-8.990622 8.892632-21.381512 13.336498-37.187369 13.336498-15.992038 0-28.485818-4.443866-37.47644-13.336498-8.985722-8.887732-13.473684-22.513301-13.473684-40.881608v-130.66044h-26.966967z" p-id="1533"></path></svg>